<svg xmlns="http://www.w3.org/2000/svg" width="900" height="420" viewBox="0 0 900 420" font-family="-apple-system, BlinkMacSystemFont, 'Hiragino Sans', 'Hiragino Kaku Gothic ProN', 'Yu Gothic UI', 'Yu Gothic', Meiryo, 'Segoe UI', 'Noto Sans CJK JP', sans-serif">
<defs><marker id="arrow" viewBox="0 0 10 10" refX="8" refY="5" markerWidth="7" markerHeight="7" orient="auto-start-reverse"><path d="M0,0 L10,5 L0,10 z" fill="#687082"/></marker><linearGradient id="heat" x1="0" y1="1" x2="0" y2="0"><stop offset="0.00" stop-color="#000004"/><stop offset="0.25" stop-color="#3c0f6e"/><stop offset="0.50" stop-color="#b43264"/><stop offset="0.75" stop-color="#fa8c28"/><stop offset="1.00" stop-color="#fcfabe"/></linearGradient><linearGradient id="heat-x" x1="0" y1="0" x2="1" y2="0"><stop offset="0.00" stop-color="#000004"/><stop offset="0.25" stop-color="#3c0f6e"/><stop offset="0.50" stop-color="#b43264"/><stop offset="0.75" stop-color="#fa8c28"/><stop offset="1.00" stop-color="#fcfabe"/></linearGradient><linearGradient id="press" x1="0" y1="0" x2="0" y2="1"><stop offset="0" stop-color="#4084ff" stop-opacity="0.08"/><stop offset="1" stop-color="#4084ff" stop-opacity="0.75"/></linearGradient></defs>
<rect x="0.5" y="0.5" width="899" height="419" rx="16" fill="#ffffff" stroke="#d9dde5"/>
<text x="30.0" y="40.0" font-size="19" font-weight="700" fill="#1f2430" text-anchor="start">Reading a lane</text>
<rect x="100.0" y="70.0" width="430.0" height="270.0" rx="4" fill="#16181d" stroke="none" stroke-width="1.5" />
<rect x="140.0" y="288.9" width="11.2" height="5" fill="#fa8c28" opacity="0.93"/>
<rect x="150.7" y="288.9" width="11.2" height="5" fill="#fa8c28" opacity="0.89"/>
<rect x="161.3" y="288.9" width="11.2" height="5" fill="#fa8c28" opacity="0.85"/>
<rect x="172.0" y="288.9" width="11.2" height="5" fill="#fa8c28" opacity="0.81"/>
<rect x="182.7" y="288.9" width="11.2" height="5" fill="#fa8c28" opacity="0.78"/>
<rect x="193.3" y="288.9" width="11.2" height="5" fill="#fa8c28" opacity="0.74"/>
<rect x="204.0" y="288.9" width="11.2" height="5" fill="#fa8c28" opacity="0.70"/>
<rect x="214.7" y="288.9" width="11.2" height="5" fill="#fa8c28" opacity="0.66"/>
<rect x="225.3" y="288.9" width="11.2" height="5" fill="#fa8c28" opacity="0.62"/>
<rect x="236.0" y="288.9" width="11.2" height="5" fill="#fa8c28" opacity="0.58"/>
<rect x="246.7" y="288.9" width="11.2" height="5" fill="#fa8c28" opacity="0.54"/>
<rect x="257.3" y="288.9" width="11.2" height="5" fill="#fa8c28" opacity="0.50"/>
<rect x="268.0" y="288.9" width="11.2" height="5" fill="#fa8c28" opacity="0.46"/>
<rect x="278.7" y="288.9" width="11.2" height="5" fill="#fa8c28" opacity="0.43"/>
<rect x="289.3" y="288.9" width="11.2" height="5" fill="#fa8c28" opacity="0.39"/>
<rect x="300.0" y="288.9" width="11.2" height="5" fill="#fa8c28" opacity="0.35"/>
<rect x="310.7" y="288.9" width="11.2" height="5" fill="#fa8c28" opacity="0.31"/>
<rect x="321.3" y="288.9" width="11.2" height="5" fill="#fa8c28" opacity="0.27"/>
<rect x="332.0" y="288.9" width="11.2" height="5" fill="#fa8c28" opacity="0.23"/>
<rect x="342.7" y="288.9" width="11.2" height="5" fill="#fa8c28" opacity="0.19"/>
<rect x="353.3" y="288.9" width="11.2" height="5" fill="#fa8c28" opacity="0.15"/>
<rect x="364.0" y="288.9" width="11.2" height="5" fill="#fa8c28" opacity="0.12"/>
<rect x="374.7" y="288.9" width="11.2" height="5" fill="#fa8c28" opacity="0.08"/>
<rect x="385.3" y="288.9" width="11.2" height="5" fill="#fa8c28" opacity="0.04"/>
<line x1="104" y1="291.4" x2="500" y2="291.4" stroke="#78ffc8" stroke-opacity="0.55" stroke-width="1"/>
<text x="106.0" y="288.4" font-size="10" font-weight="400" fill="#78ffc8" text-anchor="start">262 Hz</text>
<rect x="140.0" y="243.9" width="9.4" height="5" fill="#fa8c28" opacity="0.86"/>
<rect x="148.9" y="243.9" width="9.4" height="5" fill="#fa8c28" opacity="0.82"/>
<rect x="157.8" y="243.9" width="9.4" height="5" fill="#fa8c28" opacity="0.79"/>
<rect x="166.7" y="243.9" width="9.4" height="5" fill="#fa8c28" opacity="0.75"/>
<rect x="175.6" y="243.9" width="9.4" height="5" fill="#fa8c28" opacity="0.72"/>
<rect x="184.4" y="243.9" width="9.4" height="5" fill="#fa8c28" opacity="0.68"/>
<rect x="193.3" y="243.9" width="9.4" height="5" fill="#fa8c28" opacity="0.65"/>
<rect x="202.2" y="243.9" width="9.4" height="5" fill="#fa8c28" opacity="0.61"/>
<rect x="211.1" y="243.9" width="9.4" height="5" fill="#fa8c28" opacity="0.57"/>
<rect x="220.0" y="243.9" width="9.4" height="5" fill="#fa8c28" opacity="0.54"/>
<rect x="228.9" y="243.9" width="9.4" height="5" fill="#fa8c28" opacity="0.50"/>
<rect x="237.8" y="243.9" width="9.4" height="5" fill="#fa8c28" opacity="0.47"/>
<rect x="246.7" y="243.9" width="9.4" height="5" fill="#fa8c28" opacity="0.43"/>
<rect x="255.6" y="243.9" width="9.4" height="5" fill="#fa8c28" opacity="0.39"/>
<rect x="264.4" y="243.9" width="9.4" height="5" fill="#fa8c28" opacity="0.36"/>
<rect x="273.3" y="243.9" width="9.4" height="5" fill="#fa8c28" opacity="0.32"/>
<rect x="282.2" y="243.9" width="9.4" height="5" fill="#fa8c28" opacity="0.29"/>
<rect x="291.1" y="243.9" width="9.4" height="5" fill="#fa8c28" opacity="0.25"/>
<rect x="300.0" y="243.9" width="9.4" height="5" fill="#fa8c28" opacity="0.21"/>
<rect x="308.9" y="243.9" width="9.4" height="5" fill="#fa8c28" opacity="0.18"/>
<rect x="317.8" y="243.9" width="9.4" height="5" fill="#fa8c28" opacity="0.14"/>
<rect x="326.7" y="243.9" width="9.4" height="5" fill="#fa8c28" opacity="0.11"/>
<rect x="335.6" y="243.9" width="9.4" height="5" fill="#fa8c28" opacity="0.07"/>
<rect x="344.4" y="243.9" width="9.4" height="5" fill="#fa8c28" opacity="0.04"/>
<line x1="104" y1="246.4" x2="500" y2="246.4" stroke="#78ffc8" stroke-opacity="0.22" stroke-width="1"/>
<text x="106.0" y="243.4" font-size="10" font-weight="400" fill="#78ffc8" text-anchor="start">×2</text>
<rect x="140.0" y="217.6" width="8.1" height="5" fill="#fa8c28" opacity="0.79"/>
<rect x="147.6" y="217.6" width="8.1" height="5" fill="#fa8c28" opacity="0.76"/>
<rect x="155.2" y="217.6" width="8.1" height="5" fill="#fa8c28" opacity="0.72"/>
<rect x="162.9" y="217.6" width="8.1" height="5" fill="#fa8c28" opacity="0.69"/>
<rect x="170.5" y="217.6" width="8.1" height="5" fill="#fa8c28" opacity="0.66"/>
<rect x="178.1" y="217.6" width="8.1" height="5" fill="#fa8c28" opacity="0.63"/>
<rect x="185.7" y="217.6" width="8.1" height="5" fill="#fa8c28" opacity="0.59"/>
<rect x="193.3" y="217.6" width="8.1" height="5" fill="#fa8c28" opacity="0.56"/>
<rect x="201.0" y="217.6" width="8.1" height="5" fill="#fa8c28" opacity="0.53"/>
<rect x="208.6" y="217.6" width="8.1" height="5" fill="#fa8c28" opacity="0.49"/>
<rect x="216.2" y="217.6" width="8.1" height="5" fill="#fa8c28" opacity="0.46"/>
<rect x="223.8" y="217.6" width="8.1" height="5" fill="#fa8c28" opacity="0.43"/>
<rect x="231.4" y="217.6" width="8.1" height="5" fill="#fa8c28" opacity="0.40"/>
<rect x="239.0" y="217.6" width="8.1" height="5" fill="#fa8c28" opacity="0.36"/>
<rect x="246.7" y="217.6" width="8.1" height="5" fill="#fa8c28" opacity="0.33"/>
<rect x="254.3" y="217.6" width="8.1" height="5" fill="#fa8c28" opacity="0.30"/>
<rect x="261.9" y="217.6" width="8.1" height="5" fill="#fa8c28" opacity="0.26"/>
<rect x="269.5" y="217.6" width="8.1" height="5" fill="#fa8c28" opacity="0.23"/>
<rect x="277.1" y="217.6" width="8.1" height="5" fill="#fa8c28" opacity="0.20"/>
<rect x="284.8" y="217.6" width="8.1" height="5" fill="#fa8c28" opacity="0.16"/>
<rect x="292.4" y="217.6" width="8.1" height="5" fill="#fa8c28" opacity="0.13"/>
<rect x="300.0" y="217.6" width="8.1" height="5" fill="#fa8c28" opacity="0.10"/>
<rect x="307.6" y="217.6" width="8.1" height="5" fill="#fa8c28" opacity="0.07"/>
<rect x="315.2" y="217.6" width="8.1" height="5" fill="#fa8c28" opacity="0.03"/>
<line x1="104" y1="220.1" x2="500" y2="220.1" stroke="#78ffc8" stroke-opacity="0.22" stroke-width="1"/>
<text x="106.0" y="217.1" font-size="10" font-weight="400" fill="#78ffc8" text-anchor="start">×3</text>
<rect x="140.0" y="198.9" width="7.2" height="5" fill="#b43264" opacity="0.72"/>
<rect x="146.7" y="198.9" width="7.2" height="5" fill="#b43264" opacity="0.69"/>
<rect x="153.3" y="198.9" width="7.2" height="5" fill="#b43264" opacity="0.66"/>
<rect x="160.0" y="198.9" width="7.2" height="5" fill="#b43264" opacity="0.63"/>
<rect x="166.7" y="198.9" width="7.2" height="5" fill="#b43264" opacity="0.60"/>
<rect x="173.3" y="198.9" width="7.2" height="5" fill="#b43264" opacity="0.57"/>
<rect x="180.0" y="198.9" width="7.2" height="5" fill="#b43264" opacity="0.54"/>
<rect x="186.7" y="198.9" width="7.2" height="5" fill="#b43264" opacity="0.51"/>
<rect x="193.3" y="198.9" width="7.2" height="5" fill="#b43264" opacity="0.48"/>
<rect x="200.0" y="198.9" width="7.2" height="5" fill="#b43264" opacity="0.45"/>
<rect x="206.7" y="198.9" width="7.2" height="5" fill="#b43264" opacity="0.42"/>
<rect x="213.3" y="198.9" width="7.2" height="5" fill="#b43264" opacity="0.39"/>
<rect x="220.0" y="198.9" width="7.2" height="5" fill="#b43264" opacity="0.36"/>
<rect x="226.7" y="198.9" width="7.2" height="5" fill="#b43264" opacity="0.33"/>
<rect x="233.3" y="198.9" width="7.2" height="5" fill="#b43264" opacity="0.30"/>
<rect x="240.0" y="198.9" width="7.2" height="5" fill="#b43264" opacity="0.27"/>
<rect x="246.7" y="198.9" width="7.2" height="5" fill="#b43264" opacity="0.24"/>
<rect x="253.3" y="198.9" width="7.2" height="5" fill="#b43264" opacity="0.21"/>
<rect x="260.0" y="198.9" width="7.2" height="5" fill="#b43264" opacity="0.18"/>
<rect x="266.7" y="198.9" width="7.2" height="5" fill="#b43264" opacity="0.15"/>
<rect x="273.3" y="198.9" width="7.2" height="5" fill="#b43264" opacity="0.12"/>
<rect x="280.0" y="198.9" width="7.2" height="5" fill="#b43264" opacity="0.09"/>
<rect x="286.7" y="198.9" width="7.2" height="5" fill="#b43264" opacity="0.06"/>
<rect x="293.3" y="198.9" width="7.2" height="5" fill="#b43264" opacity="0.03"/>
<line x1="104" y1="201.4" x2="500" y2="201.4" stroke="#78ffc8" stroke-opacity="0.22" stroke-width="1"/>
<text x="106.0" y="198.4" font-size="10" font-weight="400" fill="#78ffc8" text-anchor="start">×4</text>
<rect x="140.0" y="184.4" width="6.4" height="5" fill="#b43264" opacity="0.65"/>
<rect x="145.9" y="184.4" width="6.4" height="5" fill="#b43264" opacity="0.62"/>
<rect x="151.9" y="184.4" width="6.4" height="5" fill="#b43264" opacity="0.60"/>
<rect x="157.8" y="184.4" width="6.4" height="5" fill="#b43264" opacity="0.57"/>
<rect x="163.7" y="184.4" width="6.4" height="5" fill="#b43264" opacity="0.54"/>
<rect x="169.6" y="184.4" width="6.4" height="5" fill="#b43264" opacity="0.51"/>
<rect x="175.6" y="184.4" width="6.4" height="5" fill="#b43264" opacity="0.49"/>
<rect x="181.5" y="184.4" width="6.4" height="5" fill="#b43264" opacity="0.46"/>
<rect x="187.4" y="184.4" width="6.4" height="5" fill="#b43264" opacity="0.43"/>
<rect x="193.3" y="184.4" width="6.4" height="5" fill="#b43264" opacity="0.41"/>
<rect x="199.3" y="184.4" width="6.4" height="5" fill="#b43264" opacity="0.38"/>
<rect x="205.2" y="184.4" width="6.4" height="5" fill="#b43264" opacity="0.35"/>
<rect x="211.1" y="184.4" width="6.4" height="5" fill="#b43264" opacity="0.32"/>
<rect x="217.0" y="184.4" width="6.4" height="5" fill="#b43264" opacity="0.30"/>
<rect x="223.0" y="184.4" width="6.4" height="5" fill="#b43264" opacity="0.27"/>
<rect x="228.9" y="184.4" width="6.4" height="5" fill="#b43264" opacity="0.24"/>
<rect x="234.8" y="184.4" width="6.4" height="5" fill="#b43264" opacity="0.22"/>
<rect x="240.7" y="184.4" width="6.4" height="5" fill="#b43264" opacity="0.19"/>
<rect x="246.7" y="184.4" width="6.4" height="5" fill="#b43264" opacity="0.16"/>
<rect x="252.6" y="184.4" width="6.4" height="5" fill="#b43264" opacity="0.14"/>
<rect x="258.5" y="184.4" width="6.4" height="5" fill="#b43264" opacity="0.11"/>
<rect x="264.4" y="184.4" width="6.4" height="5" fill="#b43264" opacity="0.08"/>
<rect x="270.4" y="184.4" width="6.4" height="5" fill="#b43264" opacity="0.05"/>
<rect x="276.3" y="184.4" width="6.4" height="5" fill="#b43264" opacity="0.03"/>
<line x1="104" y1="186.9" x2="500" y2="186.9" stroke="#78ffc8" stroke-opacity="0.22" stroke-width="1"/>
<text x="106.0" y="183.9" font-size="10" font-weight="400" fill="#78ffc8" text-anchor="start">×5</text>
<rect x="140.0" y="172.6" width="5.8" height="5" fill="#b43264" opacity="0.58"/>
<rect x="145.3" y="172.6" width="5.8" height="5" fill="#b43264" opacity="0.56"/>
<rect x="150.7" y="172.6" width="5.8" height="5" fill="#b43264" opacity="0.53"/>
<rect x="156.0" y="172.6" width="5.8" height="5" fill="#b43264" opacity="0.51"/>
<rect x="161.3" y="172.6" width="5.8" height="5" fill="#b43264" opacity="0.48"/>
<rect x="166.7" y="172.6" width="5.8" height="5" fill="#b43264" opacity="0.46"/>
<rect x="172.0" y="172.6" width="5.8" height="5" fill="#b43264" opacity="0.43"/>
<rect x="177.3" y="172.6" width="5.8" height="5" fill="#b43264" opacity="0.41"/>
<rect x="182.7" y="172.6" width="5.8" height="5" fill="#b43264" opacity="0.39"/>
<rect x="188.0" y="172.6" width="5.8" height="5" fill="#b43264" opacity="0.36"/>
<rect x="193.3" y="172.6" width="5.8" height="5" fill="#b43264" opacity="0.34"/>
<rect x="198.7" y="172.6" width="5.8" height="5" fill="#b43264" opacity="0.31"/>
<rect x="204.0" y="172.6" width="5.8" height="5" fill="#b43264" opacity="0.29"/>
<rect x="209.3" y="172.6" width="5.8" height="5" fill="#b43264" opacity="0.27"/>
<rect x="214.7" y="172.6" width="5.8" height="5" fill="#b43264" opacity="0.24"/>
<rect x="220.0" y="172.6" width="5.8" height="5" fill="#b43264" opacity="0.22"/>
<rect x="225.3" y="172.6" width="5.8" height="5" fill="#b43264" opacity="0.19"/>
<rect x="230.7" y="172.6" width="5.8" height="5" fill="#b43264" opacity="0.17"/>
<rect x="236.0" y="172.6" width="5.8" height="5" fill="#b43264" opacity="0.14"/>
<rect x="241.3" y="172.6" width="5.8" height="5" fill="#b43264" opacity="0.12"/>
<rect x="246.7" y="172.6" width="5.8" height="5" fill="#b43264" opacity="0.10"/>
<rect x="252.0" y="172.6" width="5.8" height="5" fill="#b43264" opacity="0.07"/>
<rect x="257.3" y="172.6" width="5.8" height="5" fill="#b43264" opacity="0.05"/>
<rect x="262.7" y="172.6" width="5.8" height="5" fill="#b43264" opacity="0.02"/>
<line x1="104" y1="175.1" x2="500" y2="175.1" stroke="#78ffc8" stroke-opacity="0.22" stroke-width="1"/>
<text x="106.0" y="172.1" font-size="10" font-weight="400" fill="#78ffc8" text-anchor="start">×6</text>
<rect x="140.0" y="162.6" width="5.3" height="5" fill="#b43264" opacity="0.51"/>
<rect x="144.8" y="162.6" width="5.3" height="5" fill="#b43264" opacity="0.49"/>
<rect x="149.7" y="162.6" width="5.3" height="5" fill="#b43264" opacity="0.47"/>
<rect x="154.5" y="162.6" width="5.3" height="5" fill="#b43264" opacity="0.45"/>
<rect x="159.4" y="162.6" width="5.3" height="5" fill="#b43264" opacity="0.43"/>
<rect x="164.2" y="162.6" width="5.3" height="5" fill="#b43264" opacity="0.40"/>
<rect x="169.1" y="162.6" width="5.3" height="5" fill="#b43264" opacity="0.38"/>
<rect x="173.9" y="162.6" width="5.3" height="5" fill="#b43264" opacity="0.36"/>
<rect x="178.8" y="162.6" width="5.3" height="5" fill="#b43264" opacity="0.34"/>
<rect x="183.6" y="162.6" width="5.3" height="5" fill="#b43264" opacity="0.32"/>
<rect x="188.5" y="162.6" width="5.3" height="5" fill="#b43264" opacity="0.30"/>
<rect x="193.3" y="162.6" width="5.3" height="5" fill="#b43264" opacity="0.28"/>
<rect x="198.2" y="162.6" width="5.3" height="5" fill="#b43264" opacity="0.26"/>
<rect x="203.0" y="162.6" width="5.3" height="5" fill="#b43264" opacity="0.23"/>
<rect x="207.9" y="162.6" width="5.3" height="5" fill="#b43264" opacity="0.21"/>
<rect x="212.7" y="162.6" width="5.3" height="5" fill="#b43264" opacity="0.19"/>
<rect x="217.6" y="162.6" width="5.3" height="5" fill="#b43264" opacity="0.17"/>
<rect x="222.4" y="162.6" width="5.3" height="5" fill="#b43264" opacity="0.15"/>
<rect x="227.3" y="162.6" width="5.3" height="5" fill="#b43264" opacity="0.13"/>
<rect x="232.1" y="162.6" width="5.3" height="5" fill="#b43264" opacity="0.11"/>
<rect x="237.0" y="162.6" width="5.3" height="5" fill="#b43264" opacity="0.08"/>
<rect x="241.8" y="162.6" width="5.3" height="5" fill="#b43264" opacity="0.06"/>
<rect x="246.7" y="162.6" width="5.3" height="5" fill="#b43264" opacity="0.04"/>
<rect x="251.5" y="162.6" width="5.3" height="5" fill="#b43264" opacity="0.02"/>
<line x1="104" y1="165.1" x2="500" y2="165.1" stroke="#78ffc8" stroke-opacity="0.22" stroke-width="1"/>
<text x="106.0" y="162.1" font-size="10" font-weight="400" fill="#78ffc8" text-anchor="start">×7</text>
<rect x="140.0" y="153.9" width="4.9" height="5" fill="#b43264" opacity="0.44"/>
<rect x="144.4" y="153.9" width="4.9" height="5" fill="#b43264" opacity="0.42"/>
<rect x="148.9" y="153.9" width="4.9" height="5" fill="#b43264" opacity="0.40"/>
<rect x="153.3" y="153.9" width="4.9" height="5" fill="#b43264" opacity="0.38"/>
<rect x="157.8" y="153.9" width="4.9" height="5" fill="#b43264" opacity="0.37"/>
<rect x="162.2" y="153.9" width="4.9" height="5" fill="#b43264" opacity="0.35"/>
<rect x="166.7" y="153.9" width="4.9" height="5" fill="#b43264" opacity="0.33"/>
<rect x="171.1" y="153.9" width="4.9" height="5" fill="#b43264" opacity="0.31"/>
<rect x="175.6" y="153.9" width="4.9" height="5" fill="#b43264" opacity="0.29"/>
<rect x="180.0" y="153.9" width="4.9" height="5" fill="#b43264" opacity="0.27"/>
<rect x="184.4" y="153.9" width="4.9" height="5" fill="#b43264" opacity="0.26"/>
<rect x="188.9" y="153.9" width="4.9" height="5" fill="#b43264" opacity="0.24"/>
<rect x="193.3" y="153.9" width="4.9" height="5" fill="#b43264" opacity="0.22"/>
<rect x="197.8" y="153.9" width="4.9" height="5" fill="#b43264" opacity="0.20"/>
<rect x="202.2" y="153.9" width="4.9" height="5" fill="#b43264" opacity="0.18"/>
<rect x="206.7" y="153.9" width="4.9" height="5" fill="#b43264" opacity="0.16"/>
<rect x="211.1" y="153.9" width="4.9" height="5" fill="#b43264" opacity="0.15"/>
<rect x="215.6" y="153.9" width="4.9" height="5" fill="#b43264" opacity="0.13"/>
<rect x="220.0" y="153.9" width="4.9" height="5" fill="#b43264" opacity="0.11"/>
<rect x="224.4" y="153.9" width="4.9" height="5" fill="#b43264" opacity="0.09"/>
<rect x="228.9" y="153.9" width="4.9" height="5" fill="#b43264" opacity="0.07"/>
<rect x="233.3" y="153.9" width="4.9" height="5" fill="#b43264" opacity="0.05"/>
<rect x="237.8" y="153.9" width="4.9" height="5" fill="#b43264" opacity="0.04"/>
<rect x="242.2" y="153.9" width="4.9" height="5" fill="#b43264" opacity="0.02"/>
<line x1="104" y1="156.4" x2="500" y2="156.4" stroke="#78ffc8" stroke-opacity="0.22" stroke-width="1"/>
<text x="106.0" y="153.4" font-size="10" font-weight="400" fill="#78ffc8" text-anchor="start">×8</text>
<rect x="140.0" y="146.3" width="4.6" height="5" fill="#b43264" opacity="0.37"/>
<rect x="144.1" y="146.3" width="4.6" height="5" fill="#b43264" opacity="0.35"/>
<rect x="148.2" y="146.3" width="4.6" height="5" fill="#b43264" opacity="0.34"/>
<rect x="152.3" y="146.3" width="4.6" height="5" fill="#b43264" opacity="0.32"/>
<rect x="156.4" y="146.3" width="4.6" height="5" fill="#b43264" opacity="0.31"/>
<rect x="160.5" y="146.3" width="4.6" height="5" fill="#b43264" opacity="0.29"/>
<rect x="164.6" y="146.3" width="4.6" height="5" fill="#b43264" opacity="0.28"/>
<rect x="168.7" y="146.3" width="4.6" height="5" fill="#b43264" opacity="0.26"/>
<rect x="172.8" y="146.3" width="4.6" height="5" fill="#b43264" opacity="0.25"/>
<rect x="176.9" y="146.3" width="4.6" height="5" fill="#b43264" opacity="0.23"/>
<rect x="181.0" y="146.3" width="4.6" height="5" fill="#b43264" opacity="0.22"/>
<rect x="185.1" y="146.3" width="4.6" height="5" fill="#b43264" opacity="0.20"/>
<rect x="189.2" y="146.3" width="4.6" height="5" fill="#b43264" opacity="0.18"/>
<rect x="193.3" y="146.3" width="4.6" height="5" fill="#b43264" opacity="0.17"/>
<rect x="197.4" y="146.3" width="4.6" height="5" fill="#b43264" opacity="0.15"/>
<rect x="201.5" y="146.3" width="4.6" height="5" fill="#b43264" opacity="0.14"/>
<rect x="205.6" y="146.3" width="4.6" height="5" fill="#b43264" opacity="0.12"/>
<rect x="209.7" y="146.3" width="4.6" height="5" fill="#b43264" opacity="0.11"/>
<rect x="213.8" y="146.3" width="4.6" height="5" fill="#b43264" opacity="0.09"/>
<rect x="217.9" y="146.3" width="4.6" height="5" fill="#b43264" opacity="0.08"/>
<rect x="222.1" y="146.3" width="4.6" height="5" fill="#b43264" opacity="0.06"/>
<rect x="226.2" y="146.3" width="4.6" height="5" fill="#b43264" opacity="0.05"/>
<rect x="230.3" y="146.3" width="4.6" height="5" fill="#b43264" opacity="0.03"/>
<rect x="234.4" y="146.3" width="4.6" height="5" fill="#b43264" opacity="0.02"/>
<rect x="140.0" y="139.4" width="4.3" height="5" fill="#b43264" opacity="0.30"/>
<rect x="143.8" y="139.4" width="4.3" height="5" fill="#b43264" opacity="0.29"/>
<rect x="147.6" y="139.4" width="4.3" height="5" fill="#b43264" opacity="0.27"/>
<rect x="151.4" y="139.4" width="4.3" height="5" fill="#b43264" opacity="0.26"/>
<rect x="155.2" y="139.4" width="4.3" height="5" fill="#b43264" opacity="0.25"/>
<rect x="159.0" y="139.4" width="4.3" height="5" fill="#b43264" opacity="0.24"/>
<rect x="162.9" y="139.4" width="4.3" height="5" fill="#b43264" opacity="0.22"/>
<rect x="166.7" y="139.4" width="4.3" height="5" fill="#b43264" opacity="0.21"/>
<rect x="170.5" y="139.4" width="4.3" height="5" fill="#b43264" opacity="0.20"/>
<rect x="174.3" y="139.4" width="4.3" height="5" fill="#b43264" opacity="0.19"/>
<rect x="178.1" y="139.4" width="4.3" height="5" fill="#b43264" opacity="0.17"/>
<rect x="181.9" y="139.4" width="4.3" height="5" fill="#b43264" opacity="0.16"/>
<rect x="185.7" y="139.4" width="4.3" height="5" fill="#b43264" opacity="0.15"/>
<rect x="189.5" y="139.4" width="4.3" height="5" fill="#b43264" opacity="0.14"/>
<rect x="193.3" y="139.4" width="4.3" height="5" fill="#b43264" opacity="0.12"/>
<rect x="197.1" y="139.4" width="4.3" height="5" fill="#b43264" opacity="0.11"/>
<rect x="201.0" y="139.4" width="4.3" height="5" fill="#b43264" opacity="0.10"/>
<rect x="204.8" y="139.4" width="4.3" height="5" fill="#b43264" opacity="0.09"/>
<rect x="208.6" y="139.4" width="4.3" height="5" fill="#b43264" opacity="0.07"/>
<rect x="212.4" y="139.4" width="4.3" height="5" fill="#b43264" opacity="0.06"/>
<rect x="216.2" y="139.4" width="4.3" height="5" fill="#b43264" opacity="0.05"/>
<rect x="220.0" y="139.4" width="4.3" height="5" fill="#b43264" opacity="0.04"/>
<rect x="223.8" y="139.4" width="4.3" height="5" fill="#b43264" opacity="0.03"/>
<rect x="227.6" y="139.4" width="4.3" height="5" fill="#b43264" opacity="0.01"/>
<rect x="140.0" y="133.2" width="4.1" height="5" fill="#b43264" opacity="0.23"/>
<rect x="143.6" y="133.2" width="4.1" height="5" fill="#b43264" opacity="0.22"/>
<rect x="147.1" y="133.2" width="4.1" height="5" fill="#b43264" opacity="0.21"/>
<rect x="150.7" y="133.2" width="4.1" height="5" fill="#b43264" opacity="0.20"/>
<rect x="154.2" y="133.2" width="4.1" height="5" fill="#b43264" opacity="0.19"/>
<rect x="157.8" y="133.2" width="4.1" height="5" fill="#b43264" opacity="0.18"/>
<rect x="161.3" y="133.2" width="4.1" height="5" fill="#b43264" opacity="0.17"/>
<rect x="164.9" y="133.2" width="4.1" height="5" fill="#b43264" opacity="0.16"/>
<rect x="168.4" y="133.2" width="4.1" height="5" fill="#b43264" opacity="0.15"/>
<rect x="172.0" y="133.2" width="4.1" height="5" fill="#b43264" opacity="0.14"/>
<rect x="175.6" y="133.2" width="4.1" height="5" fill="#b43264" opacity="0.13"/>
<rect x="179.1" y="133.2" width="4.1" height="5" fill="#b43264" opacity="0.12"/>
<rect x="182.7" y="133.2" width="4.1" height="5" fill="#b43264" opacity="0.11"/>
<rect x="186.2" y="133.2" width="4.1" height="5" fill="#b43264" opacity="0.11"/>
<rect x="189.8" y="133.2" width="4.1" height="5" fill="#b43264" opacity="0.10"/>
<rect x="193.3" y="133.2" width="4.1" height="5" fill="#b43264" opacity="0.09"/>
<rect x="196.9" y="133.2" width="4.1" height="5" fill="#b43264" opacity="0.08"/>
<rect x="200.4" y="133.2" width="4.1" height="5" fill="#b43264" opacity="0.07"/>
<rect x="204.0" y="133.2" width="4.1" height="5" fill="#b43264" opacity="0.06"/>
<rect x="207.6" y="133.2" width="4.1" height="5" fill="#b43264" opacity="0.05"/>
<rect x="211.1" y="133.2" width="4.1" height="5" fill="#b43264" opacity="0.04"/>
<rect x="214.7" y="133.2" width="4.1" height="5" fill="#b43264" opacity="0.03"/>
<rect x="218.2" y="133.2" width="4.1" height="5" fill="#b43264" opacity="0.02"/>
<rect x="221.8" y="133.2" width="4.1" height="5" fill="#b43264" opacity="0.01"/>
<rect x="140.0" y="127.6" width="3.8" height="5" fill="#b43264" opacity="0.16"/>
<rect x="143.3" y="127.6" width="3.8" height="5" fill="#b43264" opacity="0.15"/>
<rect x="146.7" y="127.6" width="3.8" height="5" fill="#b43264" opacity="0.15"/>
<rect x="150.0" y="127.6" width="3.8" height="5" fill="#b43264" opacity="0.14"/>
<rect x="153.3" y="127.6" width="3.8" height="5" fill="#b43264" opacity="0.13"/>
<rect x="156.7" y="127.6" width="3.8" height="5" fill="#b43264" opacity="0.13"/>
<rect x="160.0" y="127.6" width="3.8" height="5" fill="#b43264" opacity="0.12"/>
<rect x="163.3" y="127.6" width="3.8" height="5" fill="#b43264" opacity="0.11"/>
<rect x="166.7" y="127.6" width="3.8" height="5" fill="#b43264" opacity="0.11"/>
<rect x="170.0" y="127.6" width="3.8" height="5" fill="#b43264" opacity="0.10"/>
<rect x="173.3" y="127.6" width="3.8" height="5" fill="#b43264" opacity="0.09"/>
<rect x="176.7" y="127.6" width="3.8" height="5" fill="#b43264" opacity="0.09"/>
<rect x="180.0" y="127.6" width="3.8" height="5" fill="#b43264" opacity="0.08"/>
<rect x="183.3" y="127.6" width="3.8" height="5" fill="#b43264" opacity="0.07"/>
<rect x="186.7" y="127.6" width="3.8" height="5" fill="#b43264" opacity="0.07"/>
<rect x="190.0" y="127.6" width="3.8" height="5" fill="#b43264" opacity="0.06"/>
<rect x="193.3" y="127.6" width="3.8" height="5" fill="#b43264" opacity="0.05"/>
<rect x="196.7" y="127.6" width="3.8" height="5" fill="#b43264" opacity="0.05"/>
<rect x="200.0" y="127.6" width="3.8" height="5" fill="#b43264" opacity="0.04"/>
<rect x="203.3" y="127.6" width="3.8" height="5" fill="#b43264" opacity="0.03"/>
<rect x="206.7" y="127.6" width="3.8" height="5" fill="#b43264" opacity="0.03"/>
<rect x="210.0" y="127.6" width="3.8" height="5" fill="#b43264" opacity="0.02"/>
<rect x="213.3" y="127.6" width="3.8" height="5" fill="#b43264" opacity="0.01"/>
<rect x="216.7" y="127.6" width="3.8" height="5" fill="#b43264" opacity="0.01"/>
<rect x="138" y="78" width="8" height="254" fill="#b43264" opacity="0.5"/>
<path d="M130.0,336.0 L142.0,140.0 L210.0,166.0 L360.0,198.0 L385.0,270.0 L410.0,336.0 L530.0,336.0" stroke="#5aaaff" stroke-width="2" fill="none" stroke-linecap="round" stroke-linejoin="round" />
<text x="524.0" y="119.0" font-size="10" font-weight="400" fill="#9aa0aa" text-anchor="end">-12</text>
<text x="524.0" y="164.0" font-size="10" font-weight="400" fill="#9aa0aa" text-anchor="end">-24</text>
<text x="524.0" y="254.0" font-size="10" font-weight="400" fill="#9aa0aa" text-anchor="end">-48</text>
<rect x="300" y="70" width="110" height="270" fill="#ffffff" opacity="0.09"/>
<line x1="330.0" y1="70.0" x2="330.0" y2="340.0" stroke="#fff" stroke-width="1.8" stroke-linecap="round"/>
<line x1="100.0" y1="362.0" x2="530.0" y2="362.0" stroke="#687082" stroke-width="1.5" marker-end="url(#arrow)" stroke-linecap="round"/>
<text x="315.0" y="382.0" font-size="12.5" font-weight="400" fill="#1f2430" text-anchor="middle">time →</text>
<line x1="78.0" y1="340.0" x2="78.0" y2="70.0" stroke="#687082" stroke-width="1.5" marker-end="url(#arrow)" stroke-linecap="round"/>
<text x="66" y="205.0" font-size="12.5" fill="#1f2430" text-anchor="middle" transform="rotate(-90 66 205.0)">frequency (log) →</text>
<rect x="550" y="70" width="16" height="270" fill="url(#heat)" rx="3"/>
<text x="574.0" y="82.0" font-size="12" font-weight="400" fill="#1f2430" text-anchor="start">loud</text>
<text x="574.0" y="340.0" font-size="12" font-weight="400" fill="#1f2430" text-anchor="start">quiet</text>
<circle cx="160" cy="291.4" r="12" fill="#e8345c" stroke="#fff" stroke-width="2"/>
<text x="160.0" y="296.4" font-size="13" font-weight="700" fill="#fff" text-anchor="middle">1</text>
<circle cx="106" cy="110" r="12" fill="#e8345c" stroke="#fff" stroke-width="2"/>
<text x="106.0" y="115.0" font-size="13" font-weight="700" fill="#fff" text-anchor="middle">2</text>
<circle cx="240" cy="170" r="12" fill="#e8345c" stroke="#fff" stroke-width="2"/>
<text x="240.0" y="175.0" font-size="13" font-weight="700" fill="#fff" text-anchor="middle">3</text>
<circle cx="514" cy="200" r="12" fill="#e8345c" stroke="#fff" stroke-width="2"/>
<text x="514.0" y="205.0" font-size="13" font-weight="700" fill="#fff" text-anchor="middle">4</text>
<circle cx="355" cy="90" r="12" fill="#e8345c" stroke="#fff" stroke-width="2"/>
<text x="355.0" y="95.0" font-size="13" font-weight="700" fill="#fff" text-anchor="middle">5</text>
<circle cx="630" cy="87" r="12" fill="#e8345c" stroke="#fff" stroke-width="2"/>
<text x="630.0" y="92.0" font-size="13" font-weight="700" fill="#fff" text-anchor="middle">1</text>
<text x="650.0" y="92.0" font-size="12" font-weight="400" fill="#1f2430" text-anchor="start">The played key&#x27;s fundamental</text>
<text x="650.0" y="108.2" font-size="12" font-weight="400" fill="#1f2430" text-anchor="start">(green lines: keyboard notes)</text>
<circle cx="630" cy="143" r="12" fill="#e8345c" stroke="#fff" stroke-width="2"/>
<text x="630.0" y="148.0" font-size="13" font-weight="700" fill="#fff" text-anchor="middle">2</text>
<text x="650.0" y="148.0" font-size="12" font-weight="400" fill="#1f2430" text-anchor="start">Harmonics ×2, ×3 … above it</text>
<circle cx="630" cy="179" r="12" fill="#e8345c" stroke="#fff" stroke-width="2"/>
<text x="630.0" y="184.0" font-size="13" font-weight="700" fill="#fff" text-anchor="middle">3</text>
<text x="650.0" y="184.0" font-size="12" font-weight="400" fill="#1f2430" text-anchor="start">Brighter = louder at that</text>
<text x="650.0" y="200.2" font-size="12" font-weight="400" fill="#1f2430" text-anchor="start">frequency at that moment</text>
<circle cx="630" cy="235" r="12" fill="#e8345c" stroke="#fff" stroke-width="2"/>
<text x="630.0" y="240.0" font-size="13" font-weight="700" fill="#fff" text-anchor="middle">4</text>
<text x="650.0" y="240.0" font-size="12" font-weight="400" fill="#1f2430" text-anchor="start">Level line: dB scale on the</text>
<text x="650.0" y="256.2" font-size="12" font-weight="400" fill="#1f2430" text-anchor="start">right (top 0 dB, bottom −72)</text>
<circle cx="630" cy="291" r="12" fill="#e8345c" stroke="#fff" stroke-width="2"/>
<text x="630.0" y="296.0" font-size="13" font-weight="700" fill="#fff" text-anchor="middle">5</text>
<text x="650.0" y="296.0" font-size="12" font-weight="400" fill="#1f2430" text-anchor="start">Loop (shaded) and playhead</text>
</svg>
